<mxfile host="app.diagrams.net" agent="Mozilla/5.0 (Windows NT 10.0; Win64; x64) AppleWebKit/537.36 (KHTML, like Gecko) Chrome/130.0.0.0 Safari/537.36" version="24.8.4">
  <diagram name="Page-1" id="c4P0QMS0-4G8p_oBopXX">
    <mxGraphModel dx="1120" dy="468" grid="1" gridSize="10" guides="1" tooltips="1" connect="1" arrows="1" fold="1" page="1" pageScale="1" pageWidth="850" pageHeight="1100" math="0" shadow="0">
      <root>
        <mxCell id="0" />
        <mxCell id="1" parent="0" />
        <mxCell id="PDgRdPxH8ZEeAix5t_-z-50" value="&lt;b&gt;HTTP&lt;/b&gt;" style="rounded=0;whiteSpace=wrap;html=1;fillColor=#B3B3B3;" vertex="1" parent="1">
          <mxGeometry x="80" y="80" width="120" height="50" as="geometry" />
        </mxCell>
        <mxCell id="PDgRdPxH8ZEeAix5t_-z-51" value="&lt;b&gt;HTTPS&lt;/b&gt;" style="rounded=0;whiteSpace=wrap;html=1;fillColor=#B3B3B3;" vertex="1" parent="1">
          <mxGeometry x="80" y="160" width="120" height="50" as="geometry" />
        </mxCell>
        <mxCell id="PDgRdPxH8ZEeAix5t_-z-53" value="&lt;b&gt;HTTP&lt;/b&gt;" style="rounded=0;whiteSpace=wrap;html=1;fillColor=#B3B3B3;" vertex="1" parent="1">
          <mxGeometry x="80" y="240" width="120" height="50" as="geometry" />
        </mxCell>
        <mxCell id="PDgRdPxH8ZEeAix5t_-z-54" value="&lt;b&gt;HTTPS&lt;/b&gt;" style="rounded=0;whiteSpace=wrap;html=1;fillColor=#B3B3B3;" vertex="1" parent="1">
          <mxGeometry x="80" y="320" width="120" height="50" as="geometry" />
        </mxCell>
        <mxCell id="PDgRdPxH8ZEeAix5t_-z-55" value="&lt;b&gt;HTTP&lt;/b&gt;" style="rounded=0;whiteSpace=wrap;html=1;fillColor=#B3B3B3;" vertex="1" parent="1">
          <mxGeometry x="425" y="80" width="120" height="50" as="geometry" />
        </mxCell>
        <mxCell id="PDgRdPxH8ZEeAix5t_-z-56" value="&lt;b&gt;HTTPS&lt;/b&gt;" style="rounded=0;whiteSpace=wrap;html=1;fillColor=#B3B3B3;" vertex="1" parent="1">
          <mxGeometry x="425" y="160" width="120" height="50" as="geometry" />
        </mxCell>
        <mxCell id="PDgRdPxH8ZEeAix5t_-z-57" value="&lt;b&gt;HTTPS&lt;/b&gt;" style="rounded=0;whiteSpace=wrap;html=1;fillColor=#B3B3B3;" vertex="1" parent="1">
          <mxGeometry x="425" y="240" width="120" height="50" as="geometry" />
        </mxCell>
        <mxCell id="PDgRdPxH8ZEeAix5t_-z-58" value="&lt;b&gt;HTTP&lt;/b&gt;" style="rounded=0;whiteSpace=wrap;html=1;fillColor=#B3B3B3;" vertex="1" parent="1">
          <mxGeometry x="425" y="315" width="120" height="55" as="geometry" />
        </mxCell>
        <mxCell id="PDgRdPxH8ZEeAix5t_-z-59" value="" style="endArrow=classic;html=1;rounded=0;" edge="1" parent="1">
          <mxGeometry width="50" height="50" relative="1" as="geometry">
            <mxPoint x="210" y="110" as="sourcePoint" />
            <mxPoint x="410" y="110" as="targetPoint" />
          </mxGeometry>
        </mxCell>
        <mxCell id="PDgRdPxH8ZEeAix5t_-z-60" value="" style="endArrow=classic;html=1;rounded=0;" edge="1" parent="1">
          <mxGeometry width="50" height="50" relative="1" as="geometry">
            <mxPoint x="210" y="184.5" as="sourcePoint" />
            <mxPoint x="410" y="184.5" as="targetPoint" />
          </mxGeometry>
        </mxCell>
        <mxCell id="PDgRdPxH8ZEeAix5t_-z-61" value="" style="endArrow=classic;html=1;rounded=0;" edge="1" parent="1">
          <mxGeometry width="50" height="50" relative="1" as="geometry">
            <mxPoint x="210" y="264.5" as="sourcePoint" />
            <mxPoint x="410" y="264.5" as="targetPoint" />
          </mxGeometry>
        </mxCell>
        <mxCell id="PDgRdPxH8ZEeAix5t_-z-62" value="" style="endArrow=none;html=1;rounded=0;" edge="1" parent="1">
          <mxGeometry width="50" height="50" relative="1" as="geometry">
            <mxPoint x="210" y="350" as="sourcePoint" />
            <mxPoint x="280" y="350" as="targetPoint" />
          </mxGeometry>
        </mxCell>
        <mxCell id="PDgRdPxH8ZEeAix5t_-z-63" value="" style="verticalLabelPosition=bottom;verticalAlign=top;html=1;shape=mxgraph.basic.x" vertex="1" parent="1">
          <mxGeometry x="260" y="340" width="30" height="20" as="geometry" />
        </mxCell>
        <mxCell id="PDgRdPxH8ZEeAix5t_-z-68" value="&lt;b&gt;Referer&lt;/b&gt;" style="text;html=1;align=center;verticalAlign=middle;whiteSpace=wrap;rounded=0;" vertex="1" parent="1">
          <mxGeometry x="210" y="80" width="60" height="30" as="geometry" />
        </mxCell>
        <mxCell id="PDgRdPxH8ZEeAix5t_-z-69" value="&lt;b&gt;Referer&lt;/b&gt;" style="text;html=1;align=center;verticalAlign=middle;resizable=0;points=[];autosize=1;strokeColor=none;fillColor=none;" vertex="1" parent="1">
          <mxGeometry x="205" y="158" width="70" height="30" as="geometry" />
        </mxCell>
        <mxCell id="PDgRdPxH8ZEeAix5t_-z-70" value="&lt;b&gt;Referer&lt;/b&gt;" style="text;html=1;align=center;verticalAlign=middle;resizable=0;points=[];autosize=1;strokeColor=none;fillColor=none;" vertex="1" parent="1">
          <mxGeometry x="205" y="238" width="70" height="30" as="geometry" />
        </mxCell>
        <mxCell id="PDgRdPxH8ZEeAix5t_-z-71" value="&lt;b&gt;&lt;font style=&quot;font-size: 14px;&quot;&gt;Referrer policy&lt;/font&gt;&lt;/b&gt;" style="text;html=1;align=center;verticalAlign=middle;whiteSpace=wrap;rounded=0;" vertex="1" parent="1">
          <mxGeometry x="170" y="410" width="150" height="30" as="geometry" />
        </mxCell>
      </root>
    </mxGraphModel>
  </diagram>
</mxfile>
